{
    "asset" : {
        "generator" : "Khronos glTF Blender I/O v1.7.33",
        "version" : "2.0"
    },
    "scene" : 0,
    "scenes" : [
        {
            "name" : "Scene",
            "nodes" : [
                0,
                1,
                2,
                3,
                4,
                5,
                6,
                7,
                8
            ]
        }
    ],
    "nodes" : [
        {
            "mesh" : 0,
            "name" : "\u5e73\u9762",
            "scale" : [
                1.757415533065796,
                1.757415533065796,
                1.757415533065796
            ],
            "translation" : [
                -0.0904519185423851,
                -0.012163916602730751,
                -0.05451316386461258
            ]
        },
        {
            "mesh" : 1,
            "name" : "\u98df\u5802",
            "scale" : [
                1.757415533065796,
                1.757415533065796,
                1.757415533065796
            ],
            "translation" : [
                -0.0904519185423851,
                -0.012163916602730751,
                -0.05451316386461258
            ]
        },
        {
            "mesh" : 2,
            "name" : "3\u53f7\u9928",
            "scale" : [
                1.757415533065796,
                1.757415533065796,
                1.757415533065796
            ],
            "translation" : [
                -0.0904519185423851,
                -0.012163916602730751,
                -0.05451316386461258
            ]
        },
        {
            "mesh" : 3,
            "name" : "2\u53f7\u9928",
            "scale" : [
                1.757415533065796,
                1.757415533065796,
                1.757415533065796
            ],
            "translation" : [
                -0.0904519185423851,
                0.014584713615477085,
                -0.05451316386461258
            ]
        },
        {
            "mesh" : 4,
            "name" : "\u4f53\u80b2\u9928",
            "scale" : [
                1.757415533065796,
                1.757415533065796,
                1.757415533065796
            ],
            "translation" : [
                -0.0904519185423851,
                -0.07468803226947784,
                -0.05451316386461258
            ]
        },
        {
            "mesh" : 5,
            "name" : "\u90e8\u5ba4\u68df",
            "scale" : [
                1.757415533065796,
                1.757415533065796,
                1.757415533065796
            ],
            "translation" : [
                -0.0904519185423851,
                -0.07468803226947784,
                -0.05451316386461258
            ]
        },
        {
            "mesh" : 6,
            "name" : "1\u53f7\u9928",
            "scale" : [
                1.757415533065796,
                1.757415533065796,
                1.757415533065796
            ],
            "translation" : [
                -0.0904519185423851,
                -0.012163916602730751,
                -0.05451316386461258
            ]
        },
        {
            "mesh" : 7,
            "name" : "\u5e73\u9762.003",
            "scale" : [
                1.757415533065796,
                1.757415533065796,
                1.757415533065796
            ],
            "translation" : [
                -0.0904519185423851,
                -0.012163916602730751,
                -0.05451316386461258
            ]
        },
        {
            "mesh" : 8,
            "name" : "\u7acb\u65b9\u4f53",
            "scale" : [
                0.2539648115634918,
                0.042979758232831955,
                0.2539648115634918
            ],
            "translation" : [
                1.79841148853302,
                0.34014883637428284,
                1.0838587284088135
            ]
        }
    ],
    "materials" : [
        {
            "doubleSided" : true,
            "name" : "\u30de\u30c6\u30ea\u30a2\u30eb",
            "pbrMetallicRoughness" : {
                "baseColorFactor" : [
                    0.800000011920929,
                    0.800000011920929,
                    0.800000011920929,
                    1
                ],
                "metallicFactor" : 0,
                "roughnessFactor" : 0.5
            }
        }
    ],
    "meshes" : [
        {
            "name" : "\u5e73\u9762",
            "primitives" : [
                {
                    "attributes" : {
                        "POSITION" : 0,
                        "NORMAL" : 1,
                        "TEXCOORD_0" : 2
                    },
                    "indices" : 3,
                    "material" : 0
                }
            ]
        },
        {
            "name" : "\u7acb\u65b9\u4f53.001",
            "primitives" : [
                {
                    "attributes" : {
                        "POSITION" : 4,
                        "NORMAL" : 5,
                        "TEXCOORD_0" : 6
                    },
                    "indices" : 7,
                    "material" : 0
                }
            ]
        },
        {
            "name" : "\u7acb\u65b9\u4f53.003",
            "primitives" : [
                {
                    "attributes" : {
                        "POSITION" : 8,
                        "NORMAL" : 9,
                        "TEXCOORD_0" : 10
                    },
                    "indices" : 11,
                    "material" : 0
                }
            ]
        },
        {
            "name" : "\u7acb\u65b9\u4f53.004",
            "primitives" : [
                {
                    "attributes" : {
                        "POSITION" : 12,
                        "NORMAL" : 13,
                        "TEXCOORD_0" : 14
                    },
                    "indices" : 15,
                    "material" : 0
                }
            ]
        },
        {
            "name" : "\u7acb\u65b9\u4f53.005",
            "primitives" : [
                {
                    "attributes" : {
                        "POSITION" : 16,
                        "NORMAL" : 17,
                        "TEXCOORD_0" : 18
                    },
                    "indices" : 19,
                    "material" : 0
                }
            ]
        },
        {
            "name" : "\u7acb\u65b9\u4f53.007",
            "primitives" : [
                {
                    "attributes" : {
                        "POSITION" : 20,
                        "NORMAL" : 21,
                        "TEXCOORD_0" : 22
                    },
                    "indices" : 23,
                    "material" : 0
                }
            ]
        },
        {
            "name" : "\u7acb\u65b9\u4f53.002",
            "primitives" : [
                {
                    "attributes" : {
                        "POSITION" : 24,
                        "NORMAL" : 25,
                        "TEXCOORD_0" : 26
                    },
                    "indices" : 27,
                    "material" : 0
                }
            ]
        },
        {
            "name" : "\u5e73\u9762.003",
            "primitives" : [
                {
                    "attributes" : {
                        "POSITION" : 28,
                        "NORMAL" : 29,
                        "TEXCOORD_0" : 30
                    },
                    "indices" : 31,
                    "material" : 0
                }
            ]
        },
        {
            "name" : "\u7acb\u65b9\u4f53",
            "primitives" : [
                {
                    "attributes" : {
                        "POSITION" : 32,
                        "NORMAL" : 33,
                        "TEXCOORD_0" : 34
                    },
                    "indices" : 35,
                    "material" : 0
                }
            ]
        }
    ],
    "accessors" : [
        {
            "bufferView" : 0,
            "componentType" : 5126,
            "count" : 3026,
            "max" : [
                2.0100314617156982,
                0.1944497674703598,
                1.4508270025253296
            ],
            "min" : [
                -1.9619327783584595,
                -5.662441253662109e-07,
                -1.066429853439331
            ],
            "type" : "VEC3"
        },
        {
            "bufferView" : 1,
            "componentType" : 5126,
            "count" : 3026,
            "type" : "VEC3"
        },
        {
            "bufferView" : 2,
            "componentType" : 5126,
            "count" : 3026,
            "type" : "VEC2"
        },
        {
            "bufferView" : 3,
            "componentType" : 5123,
            "count" : 7896,
            "type" : "SCALAR"
        },
        {
            "bufferView" : 4,
            "componentType" : 5126,
            "count" : 231,
            "max" : [
                1.6652324199676514,
                0.5282643437385559,
                0.222225159406662
            ],
            "min" : [
                1.1087281703948975,
                0.17086607217788696,
                -0.2149696946144104
            ],
            "type" : "VEC3"
        },
        {
            "bufferView" : 5,
            "componentType" : 5126,
            "count" : 231,
            "type" : "VEC3"
        },
        {
            "bufferView" : 6,
            "componentType" : 5126,
            "count" : 231,
            "type" : "VEC2"
        },
        {
            "bufferView" : 7,
            "componentType" : 5123,
            "count" : 324,
            "type" : "SCALAR"
        },
        {
            "bufferView" : 8,
            "componentType" : 5126,
            "count" : 2127,
            "max" : [
                1.1016160249710083,
                0.5282643437385559,
                0.2639974355697632
            ],
            "min" : [
                -0.05671939253807068,
                0.13732735812664032,
                -0.2315238118171692
            ],
            "type" : "VEC3"
        },
        {
            "bufferView" : 9,
            "componentType" : 5126,
            "count" : 2127,
            "type" : "VEC3"
        },
        {
            "bufferView" : 10,
            "componentType" : 5126,
            "count" : 2127,
            "type" : "VEC2"
        },
        {
            "bufferView" : 11,
            "componentType" : 5123,
            "count" : 4230,
            "type" : "SCALAR"
        },
        {
            "bufferView" : 12,
            "componentType" : 5126,
            "count" : 1580,
            "max" : [
                1.0785129070281982,
                0.387138307094574,
                1.2574193477630615
            ],
            "min" : [
                0.3033328652381897,
                0.17086607217788696,
                0.5651850700378418
            ],
            "type" : "VEC3"
        },
        {
            "bufferView" : 13,
            "componentType" : 5126,
            "count" : 1580,
            "type" : "VEC3"
        },
        {
            "bufferView" : 14,
            "componentType" : 5126,
            "count" : 1580,
            "type" : "VEC2"
        },
        {
            "bufferView" : 15,
            "componentType" : 5123,
            "count" : 3186,
            "type" : "SCALAR"
        },
        {
            "bufferView" : 16,
            "componentType" : 5126,
            "count" : 267,
            "max" : [
                -0.438339501619339,
                0.5282643437385559,
                -0.47460687160491943
            ],
            "min" : [
                -1.0078188180923462,
                0.17086607217788696,
                -1.025883674621582
            ],
            "type" : "VEC3"
        },
        {
            "bufferView" : 17,
            "componentType" : 5126,
            "count" : 267,
            "type" : "VEC3"
        },
        {
            "bufferView" : 18,
            "componentType" : 5126,
            "count" : 267,
            "type" : "VEC2"
        },
        {
            "bufferView" : 19,
            "componentType" : 5123,
            "count" : 384,
            "type" : "SCALAR"
        },
        {
            "bufferView" : 20,
            "componentType" : 5126,
            "count" : 96,
            "max" : [
                -1.0272406339645386,
                0.5282643437385559,
                -0.5001622438430786
            ],
            "min" : [
                -1.1233714818954468,
                0.17086607217788696,
                -1.0316407680511475
            ],
            "type" : "VEC3"
        },
        {
            "bufferView" : 21,
            "componentType" : 5126,
            "count" : 96,
            "type" : "VEC3"
        },
        {
            "bufferView" : 22,
            "componentType" : 5126,
            "count" : 96,
            "type" : "VEC2"
        },
        {
            "bufferView" : 23,
            "componentType" : 5123,
            "count" : 132,
            "type" : "SCALAR"
        },
        {
            "bufferView" : 24,
            "componentType" : 5126,
            "count" : 96,
            "max" : [
                1.803496241569519,
                0.5282643437385559,
                0.9251022934913635
            ],
            "min" : [
                1.49740469455719,
                0.17086607217788696,
                0.5668236613273621
            ],
            "type" : "VEC3"
        },
        {
            "bufferView" : 25,
            "componentType" : 5126,
            "count" : 96,
            "type" : "VEC3"
        },
        {
            "bufferView" : 26,
            "componentType" : 5126,
            "count" : 96,
            "type" : "VEC2"
        },
        {
            "bufferView" : 27,
            "componentType" : 5123,
            "count" : 132,
            "type" : "SCALAR"
        },
        {
            "bufferView" : 28,
            "componentType" : 5126,
            "count" : 374,
            "max" : [
                0.10367224365472794,
                0.2121538668870926,
                0.20658275485038757
            ],
            "min" : [
                -0.02300039492547512,
                0.13939079642295837,
                0.14762680232524872
            ],
            "type" : "VEC3"
        },
        {
            "bufferView" : 29,
            "componentType" : 5126,
            "count" : 374,
            "type" : "VEC3"
        },
        {
            "bufferView" : 30,
            "componentType" : 5126,
            "count" : 374,
            "type" : "VEC2"
        },
        {
            "bufferView" : 31,
            "componentType" : 5123,
            "count" : 564,
            "type" : "SCALAR"
        },
        {
            "bufferView" : 32,
            "componentType" : 5126,
            "count" : 488,
            "max" : [
                1.0000009536743164,
                0.41278043389320374,
                1.0000003576278687
            ],
            "min" : [
                -0.9999995231628418,
                -1.0622309446334839,
                -1
            ],
            "type" : "VEC3"
        },
        {
            "bufferView" : 33,
            "componentType" : 5126,
            "count" : 488,
            "type" : "VEC3"
        },
        {
            "bufferView" : 34,
            "componentType" : 5126,
            "count" : 488,
            "type" : "VEC2"
        },
        {
            "bufferView" : 35,
            "componentType" : 5123,
            "count" : 660,
            "type" : "SCALAR"
        }
    ],
    "bufferViews" : [
        {
            "buffer" : 0,
            "byteLength" : 36312,
            "byteOffset" : 0
        },
        {
            "buffer" : 0,
            "byteLength" : 36312,
            "byteOffset" : 36312
        },
        {
            "buffer" : 0,
            "byteLength" : 24208,
            "byteOffset" : 72624
        },
        {
            "buffer" : 0,
            "byteLength" : 15792,
            "byteOffset" : 96832
        },
        {
            "buffer" : 0,
            "byteLength" : 2772,
            "byteOffset" : 112624
        },
        {
            "buffer" : 0,
            "byteLength" : 2772,
            "byteOffset" : 115396
        },
        {
            "buffer" : 0,
            "byteLength" : 1848,
            "byteOffset" : 118168
        },
        {
            "buffer" : 0,
            "byteLength" : 648,
            "byteOffset" : 120016
        },
        {
            "buffer" : 0,
            "byteLength" : 25524,
            "byteOffset" : 120664
        },
        {
            "buffer" : 0,
            "byteLength" : 25524,
            "byteOffset" : 146188
        },
        {
            "buffer" : 0,
            "byteLength" : 17016,
            "byteOffset" : 171712
        },
        {
            "buffer" : 0,
            "byteLength" : 8460,
            "byteOffset" : 188728
        },
        {
            "buffer" : 0,
            "byteLength" : 18960,
            "byteOffset" : 197188
        },
        {
            "buffer" : 0,
            "byteLength" : 18960,
            "byteOffset" : 216148
        },
        {
            "buffer" : 0,
            "byteLength" : 12640,
            "byteOffset" : 235108
        },
        {
            "buffer" : 0,
            "byteLength" : 6372,
            "byteOffset" : 247748
        },
        {
            "buffer" : 0,
            "byteLength" : 3204,
            "byteOffset" : 254120
        },
        {
            "buffer" : 0,
            "byteLength" : 3204,
            "byteOffset" : 257324
        },
        {
            "buffer" : 0,
            "byteLength" : 2136,
            "byteOffset" : 260528
        },
        {
            "buffer" : 0,
            "byteLength" : 768,
            "byteOffset" : 262664
        },
        {
            "buffer" : 0,
            "byteLength" : 1152,
            "byteOffset" : 263432
        },
        {
            "buffer" : 0,
            "byteLength" : 1152,
            "byteOffset" : 264584
        },
        {
            "buffer" : 0,
            "byteLength" : 768,
            "byteOffset" : 265736
        },
        {
            "buffer" : 0,
            "byteLength" : 264,
            "byteOffset" : 266504
        },
        {
            "buffer" : 0,
            "byteLength" : 1152,
            "byteOffset" : 266768
        },
        {
            "buffer" : 0,
            "byteLength" : 1152,
            "byteOffset" : 267920
        },
        {
            "buffer" : 0,
            "byteLength" : 768,
            "byteOffset" : 269072
        },
        {
            "buffer" : 0,
            "byteLength" : 264,
            "byteOffset" : 269840
        },
        {
            "buffer" : 0,
            "byteLength" : 4488,
            "byteOffset" : 270104
        },
        {
            "buffer" : 0,
            "byteLength" : 4488,
            "byteOffset" : 274592
        },
        {
            "buffer" : 0,
            "byteLength" : 2992,
            "byteOffset" : 279080
        },
        {
            "buffer" : 0,
            "byteLength" : 1128,
            "byteOffset" : 282072
        },
        {
            "buffer" : 0,
            "byteLength" : 5856,
            "byteOffset" : 283200
        },
        {
            "buffer" : 0,
            "byteLength" : 5856,
            "byteOffset" : 289056
        },
        {
            "buffer" : 0,
            "byteLength" : 3904,
            "byteOffset" : 294912
        },
        {
            "buffer" : 0,
            "byteLength" : 1320,
            "byteOffset" : 298816
        }
    ],
    "buffers" : [
        {
            "byteLength" : 300136,
            "uri" : "data:application/octet-stream;base64,"
        }
    ]
}
